<?xml version="1.0" encoding="utf-8"?>
<!-- Generator: Adobe Illustrator 16.0.0, SVG Export Plug-In . SVG Version: 6.00 Build 0)  -->
<!DOCTYPE svg PUBLIC "-//W3C//DTD SVG 1.1//EN" "http://www.w3.org/Graphics/SVG/1.1/DTD/svg11.dtd">
<svg version="1.1" id="Layer_1" xmlns="http://www.w3.org/2000/svg" xmlns:xlink="http://www.w3.org/1999/xlink" x="0px" y="0px"
	 width="2139.367px" height="1455.25px" viewBox="0 -727.75 2139.367 1455.25" enable-background="new 0 -727.75 2139.367 1455.25"
	 xml:space="preserve">
<path fill="none" stroke="#F47D52" stroke-width="180.5945" stroke-linejoin="round" stroke-miterlimit="10" d="M285.765,141.459
	c0-427.139,346.267-773.402,773.405-773.402c427.141,0,773.365,346.263,773.365,773.402"/>
<path fill="#F47D52" d="M320.482,587.842c0,29.691-16.071,53.718-36.023,53.718H64.755c-19.873,0-36.025-24.068-36.025-53.718
	v-371.84c0-29.689,16.152-53.717,36.025-53.717h219.707c19.951,0,36.022,24.068,36.022,53.757v372.114v-0.313H320.482z
	 M2074.37,587.842c0,29.691-16.11,53.718-36.022,53.718h-219.706c-19.871,0-36.021-24.068-36.021-53.718v-371.84
	c0-29.689,16.15-53.717,36.021-53.717h219.706c19.914,0,36.022,24.068,36.022,53.757v372.114V587.842z"/>
<g>
	<g>
		<defs>
			<rect id="SVGID_1_" x="579.38" y="22.425" width="968.13" height="323.661"/>
		</defs>
		<clipPath id="SVGID_2_">
			<use xlink:href="#SVGID_1_"  overflow="visible"/>
		</clipPath>
		<path clip-path="url(#SVGID_2_)" d="M739.19,65.97l-31.831,18.882c-5.936-10.292-11.635-17.102-17.019-20.19
			c-5.623-3.64-12.866-5.422-21.775-5.422c-10.844,0-19.873,3.089-27.077,9.263c-7.521,6.057-11.085,13.695-11.085,22.962
			c0,12.668,9.504,22.88,28.106,30.64l25.733,10.61c20.981,8.551,36.418,18.997,46.315,31.273
			c9.896,12.27,14.646,27.313,14.646,45.246c0,23.751-7.915,43.545-24.146,58.989c-15.837,15.833-36.026,23.353-59.776,23.353
			c-22.565,0-41.169-6.729-55.817-20.188c-14.646-13.459-23.752-32.46-27.315-56.607l39.783-9.106
			c1.861,15.438,4.99,25.729,9.501,31.667c8.078,11.09,19.796,17.026,35.235,17.026c12.27,0,22.444-4.358,30.479-12.272
			c8.157-8.315,12.27-18.606,12.27-31.273c0-5.146-0.791-9.897-2.172-13.854c-1.348-4.355-3.566-8.314-6.493-11.877
			c-3.167-3.562-6.891-7.008-11.602-9.897c-4.748-3.172-10.29-6.253-16.624-9.024l-25.334-10.452
			c-35.629-15.042-53.442-36.974-53.442-65.912c0-19.554,7.523-35.866,22.448-49.088c14.844-13.067,33.369-19.792,55.617-19.792
			c30.087,0,53.441,14.643,70.462,43.546 M903.358,145.617h12.668c37.211,0,55.816-14.251,55.816-42.593
			c0-26.921-18.209-39.982-54.47-39.982h-14.136v82.339L903.358,145.617z M952.444,175.464l80.755,110.448h-47.898l-74.423-106.09
			h-7.125v106.485h-39.114V26.621h46.477c34.439,0,59.38,6.493,74.659,19.399c16.626,14.37,25.333,33.331,25.333,56.885
			c0,18.448-5.539,34.284-15.832,47.502c-10.69,13.263-24.545,21.774-41.963,25.456"/>
	</g>
</g>
<path d="M1199.184,64.386h-104.268v62.704h101.223v36.814h-101.223v86.818h104.268v36.818h-143.382V27.572h143.382 M1377.053,64.386
	h-104.314v62.704h101.263v36.814h-101.263v86.818h104.271v36.818h-143.693V27.572h143.301 M1388.494,27.572v36.813h59.775v223.152
	h39.188V64.386h59.383V27.572 M810.131,51.636v148.649h-25.692V51.636h-39.584V26.936h105.538v24.701"/>
<g>
	<g>
		<defs>
			<rect id="SVGID_3_" x="579.38" y="22.425" width="968.13" height="323.661"/>
		</defs>
		<clipPath id="SVGID_4_">
			<use xlink:href="#SVGID_3_"  overflow="visible"/>
		</clipPath>
		<path clip-path="url(#SVGID_4_)" d="M784.359,224.909c4.078-0.078,7.363-2.97,7.363-7.205c0-3.761-3.168-6.727-6.89-6.727
			c-3.957,0-6.453,2.569-6.727,6.526h-2.177c0.393-5.222,3.561-8.628,8.985-8.628c4.95,0,8.986,3.882,8.986,8.908
			c0,3.564-1.98,6.61-5.539,8.037c3.561,1.346,5.539,4.75,5.539,8.432c0,5.939-4.355,10.289-10.291,10.289
			c-5.146,0-9.898-3.559-9.502-8.707h1.979c0.395,3.959,3.166,7.127,7.126,7.127c4.355,0,7.918-3.564,7.918-7.918
			c0-4.356-3.564-7.127-7.918-7.127v-1.979L784.359,224.909z"/>
	</g>
</g>
<path d="M817.812,214.816h-0.279l-14.411,20.268v0.279h14.647v-20.547H817.812z M824.857,235.4v1.981h-4.788v6.649h-2.177v-6.614
	h-18.726l20.587-28.896h0.315v27.313h4.865L824.857,235.4z M782.104,285.398h-1.98v-32.583h-8.709v-2.096h20.189v2.096h-9.107
	 M818.522,265.486v-14.764h2.375V285.4h-1.979v-17.896h-20.981v18.214h-1.979v-34.441h2.217v14.649"/>
<text transform="matrix(1 0 0 1 548.5625 618.124)" fill="#2996B2" font-family="'Futura-Medium'" font-size="346.898">BEATS</text>
<path fill="#2996B2" d="M439.242,619.785c0,52.331-30.401,94.736-67.889,94.736H190.442c-37.489,0-67.892-42.361-67.892-94.699
	V201.753c0-52.256,30.403-94.692,67.852-94.692h180.911c37.528,0,67.93,42.357,67.93,94.692V619.785L439.242,619.785z
	 M1988.19,619.785c0,52.331-30.4,94.736-67.849,94.736h-180.913c-37.53,0-67.931-42.361-67.931-94.699V201.753
	c0-52.256,30.4-94.692,67.893-94.692h180.906c37.493,0,67.892,42.357,67.892,94.692v418.032H1988.19z"/>
</svg>
